<svg width="243" height="17" viewBox="0 0 243 17" fill="none" xmlns="http://www.w3.org/2000/svg">
<path fill-rule="evenodd" clip-rule="evenodd" d="M8 0.316406C3.58172 0.316406 0 3.89812 0 8.31641C0 12.7347 3.58172 16.3164 8 16.3164H72C76.4183 16.3164 80 12.7347 80 8.31641C80 3.89812 76.4183 0.316406 72 0.316406H8ZM232.285 16.4087L230.838 15.0933C229.065 13.4766 227.482 11.8885 226.089 10.3289C224.696 8.76926 224 7.09843 224 5.3164C224 3.89718 224.479 2.70905 225.436 1.752C226.393 0.794945 227.581 0.316422 229 0.316422C229.806 0.316422 230.603 0.502319 231.389 0.874123C232.176 1.24592 232.879 1.84977 233.5 2.68567C234.12 1.84977 234.824 1.24592 235.611 0.874123C236.397 0.502319 237.194 0.316422 238 0.316422C239.419 0.316422 240.607 0.794945 241.564 1.752C242.521 2.70905 243 3.89718 243 5.3164C243 7.11766 242.292 8.80708 240.875 10.3846C239.458 11.9622 237.879 13.5369 236.136 15.1087L234.715 16.399C234.37 16.7208 233.965 16.8833 233.5 16.8866C233.035 16.8897 232.629 16.7305 232.285 16.4087Z" fill="url(#paint0_linear_1872_23925)"/>
<defs>
<linearGradient id="paint0_linear_1872_23925" x1="0" y1="8.6015" x2="3.77414" y2="38.6493" gradientUnits="userSpaceOnUse">
<stop stop-color="#C7D2DC"/>
<stop offset="0.479167" stop-color="#EDF1F4"/>
<stop offset="1" stop-color="#C7D2DC"/>
</linearGradient>
</defs>
</svg>
